<?xml version="1.0" standalone="no"?><!DOCTYPE svg PUBLIC "-//W3C//DTD SVG 1.1//EN" "http://www.w3.org/Graphics/SVG/1.1/DTD/svg11.dtd"><svg class="icon" width="200px" height="200.00px" viewBox="0 0 1024 1024" version="1.1" xmlns="http://www.w3.org/2000/svg"><path d="M513.5 1022c-68.7 0-135.3-13.5-198-40-60.6-25.6-115-62.3-161.7-109S70.5 772 44.9 711.4c-26.5-62.7-40-129.3-40-198s13.5-135.3 40-198c25.6-60.6 62.3-115 109-161.7S255 70.4 315.5 44.8c62.7-26.5 129.3-40 198-40s135.3 13.5 198 40c60.6 25.6 115 62.3 161.7 109s83.4 101.1 109 161.7c26.5 62.7 40 129.3 40 198s-13.5 135.3-40 198c-25.6 60.6-62.3 115-109 161.7S772 956.4 711.5 982c-62.7 26.6-129.4 40-198 40z m0-969.2c-254 0-460.6 206.6-460.6 460.6S259.5 974 513.5 974s460.6-206.6 460.6-460.6S767.5 52.8 513.5 52.8zM514 912.9l-0.1-48c14.7 0 29.6-1 44.1-2.8l6 47.6c-16.5 2.1-33.3 3.2-50 3.2z m-50.1-3c-16.6-2.1-33.2-5.2-49.3-9.3l11.8-46.5c14.2 3.6 28.8 6.4 43.4 8.2l-5.9 47.6z m149.4-9.5l-12-46.5c14.2-3.7 28.3-8.2 41.9-13.7l17.7 44.6c-15.4 6.2-31.5 11.4-47.6 15.6z m-246.5-15.3c-15.5-6.1-30.8-13.3-45.4-21.3l23.1-42.1c12.9 7.1 26.3 13.4 39.9 18.8l-17.6 44.6z m339.5-21.7l-23.2-42c12.8-7.1 25.3-15.1 37.2-23.7l28.3 38.8c-13.5 9.8-27.7 18.9-42.3 26.9zM279 836.9c-13.5-9.8-26.5-20.5-38.7-31.9l32.8-35c10.7 10 22.2 19.5 34 28.1L279 836.9z m508.2-32.4l-32.9-35c10.7-10.1 20.9-20.9 30.2-32.2l37 30.6c-10.6 12.8-22.2 25.1-34.3 36.6z m-581.2-36c-10.7-12.8-20.6-26.5-29.6-40.5l40.5-25.8c7.9 12.4 16.6 24.3 26 35.6L206 768.5z m645-41.2l-40.5-25.7c7.9-12.4 15-25.4 21.3-38.7l43.4 20.4c-7.1 15.1-15.3 29.9-24.2 44z m-698.8-43.2c-7.1-15.1-13.4-30.8-18.6-46.6l45.6-14.9c4.5 13.9 10 27.7 16.3 41l-43.3 20.5z m741.4-47.4L848 621.9c4.5-13.9 8.2-28.3 10.9-42.7L906 588c-3.1 16.4-7.2 32.8-12.4 48.7z m-772.5-47.8c-3.1-16.3-5.2-33.1-6.3-49.8l47.9-3c0.9 14.7 2.8 29.4 5.5 43.8l-47.1 9z m791.1-50.6l-47.9-2.9c0.4-7.2 0.7-14.6 0.7-21.9 0-7.4-0.2-14.9-0.7-22.3l47.9-3c0.5 8.4 0.8 16.9 0.8 25.3 0 8.2-0.3 16.5-0.8 24.8z m-749.6-46.4l-47.9-2.9c1-16.7 3.1-33.4 6.1-49.8l47.2 8.9c-2.7 14.4-4.5 29.1-5.4 43.8z m696.2-44.5c-2.7-14.4-6.4-28.8-11-42.7l45.6-14.8c5.2 15.9 9.3 32.2 12.5 48.6l-47.1 8.9z m-679.9-42l-45.7-14.7c5.1-15.9 11.3-31.6 18.4-46.7l43.5 20.4c-6.2 13.2-11.7 27-16.2 41z m652.7-41.8c-6.2-13.2-13.4-26.2-21.3-38.6l40.5-25.8c9 14.1 17.1 28.8 24.2 43.9l-43.4 20.5z m-615.3-38l-40.6-25.7c8.9-14.1 18.8-27.7 29.4-40.6l37 30.5c-9.2 11.4-17.9 23.4-25.8 35.8z m568-36.3c-9.4-11.3-19.5-22.1-30.2-32.2l32.9-35c12.2 11.4 23.7 23.7 34.3 36.5l-37 30.7z m-511.9-31.7l-32.9-34.9c12.1-11.4 25.1-22.2 38.6-32l28.3 38.8c-11.9 8.6-23.3 18.1-34 28.1zM720.1 229c-11.9-8.6-24.4-16.6-37.3-23.7l23.2-42c14.6 8 28.8 17.1 42.3 26.9L720.1 229z m-376.6-23.3l-23.2-42c14.6-8.1 29.8-15.3 45.3-21.5l17.8 44.6c-13.6 5.4-27 11.8-39.9 18.9z m299.4-19.2c-13.6-5.4-27.8-10-42-13.6l11.9-46.5c16.2 4.1 32.2 9.4 47.8 15.5l-17.7 44.6z m-217.6-13.4l-12-46.5c16.1-4.2 32.7-7.3 49.3-9.5l6.1 47.6c-14.6 1.9-29.2 4.7-43.4 8.4z m132.3-8.4c-14.5-1.8-29.3-2.7-44.1-2.7h-0.8l-0.2-48h0.9c16.7 0 33.5 1 50 3.1l-5.8 47.6zM737.2 711h-22.7V528.6c0-33.6-27.2-60.8-60.8-60.8h-45.9V346.2c0-33.6-27.2-60.8-60.8-60.8H395.1c-33.6 0-60.8 27.2-60.8 60.8V711h-24.5c-8.4 0-15.3 6.8-15.3 15.3 0 8.4 6.8 15.3 15.3 15.3h427.5c8.4 0 15.3-6.8 15.3-15.3-0.1-8.6-7-15.3-15.4-15.3zM424.3 590.5h-46.7c-13.1 0-23.5-10.6-23.5-23.5 0-13.1 10.6-23.5 23.5-23.5h46.7c12.9 0 23.4 10.5 23.5 23.5 0 13.1-10.6 23.5-23.5 23.5z m0-153h-46.7c-13.1 0-23.5-10.6-23.5-23.5 0-13.1 10.6-23.5 23.5-23.5h46.7c12.9 0 23.4 10.5 23.5 23.5 0 13-10.6 23.5-23.5 23.5z m140.4 153H518c-13.1 0-23.5-10.6-23.5-23.5 0-13.1 10.6-23.5 23.5-23.5h46.7c12.9 0 23.3 10.5 23.5 23.5-0.1 13.1-10.7 23.5-23.5 23.5z m0-153H518c-13.1 0-23.5-10.6-23.5-23.5 0-13.1 10.6-23.5 23.5-23.5h46.7c12.9 0 23.3 10.5 23.5 23.5-0.1 13-10.7 23.5-23.5 23.5z" /></svg>